<svg xmlns="http://www.w3.org/2000/svg" viewBox="0 0 500 500"><g id="freepik--Shadow--inject-3"><ellipse id="freepik--path--inject-3" cx="250" cy="416.24" rx="193.89" ry="11.32" style="fill:#f5f5f5"></ellipse></g><g id="freepik--football-gate--inject-3"><g style="opacity:0.5"><path d="M449,95l-.06-.92h-.82L447,75.57h-1L447.08,94H427.29l-1-18.47h-1l1,18.47H406.49l-.89-18.47h-1L405.48,94H385.69l-.77-18.47h-1L384.69,94H364.9l-.66-18.47h-1L363.89,94H344.1l-.54-18.47h-1L343.09,94H323.3l-.42-18.47h-1L322.29,94H302.5l-.3-18.47h-1L301.49,94H281.7l-.18-18.47h-1L280.69,94H260.9l-.06-18.47h-1L259.9,94H240.1l.06-18.47h-1L239.1,94H219.31l.17-18.47h-1L218.3,94H198.51l.29-18.47h-1L197.5,94H177.71l.41-18.47h-1L176.7,94H156.91l.53-18.47h-1L155.9,94H136.11l.65-18.47h-1L135.1,94H115.31l.77-18.47h-1L114.31,94H94.52l.88-18.47h-1L93.51,94H73.72l1-18.47h-1L72.71,94H52.92L54,75.57H53L51.91,94H51l-.05.92h.92l-1.11,18.22h-.93l-.06.93h.93l-1.12,18.44h-.93l-.06.94h.93l-1.14,18.65h-.93l-.06,1h.93L47.16,172h-.94l-.06,1h.94l-1.16,19.11H45l-.06,1h1L44.7,212.37h-1l-.06,1h1l-1.19,19.57h-1l-.06,1h1l-1.21,19.82h-1l-.07,1h1L40.9,274.82h-1l-.07,1h1L39.6,296.16h-1l-.06,1h1l-1.25,20.56h-1l-.07,1.05h1L37,339.63H36l-.07,1.07h1L35.6,361.79h-1l-.06,1.08h1l-1.3,21.35h-1l-.07,1.09H466.73l-.07-1.09h-.89l-1.3-21.35h.89l-.07-1.08h-.89l-1.28-21.09H464l-.06-1.07h-.89l-1.27-20.82h.88l-.06-1.05h-.88l-1.25-20.56h.87l-.06-1h-.88l-1.23-20.31H460l-.06-1h-.87l-1.22-20.06h.86l-.06-1h-.86l-1.21-19.82h.86l-.06-1h-.86l-1.19-19.57h.85l-.06-1h-.85L454.12,193H455l-.06-1h-.85l-1.16-19.11h.84l-.06-1h-.84l-1.15-18.88h.83l0-1h-.84l-1.14-18.65h.83l-.05-.94h-.84l-1.12-18.44h.83l-.06-.93h-.83L448.14,95Zm-22.64,0,1,18.22H407.41L406.54,95ZM218,233.93h20.64l-.07,19.82H217.8Zm-1.25,19.82H196l.31-19.82h20.64Zm22.94-19.82h20.64l.06,19.82H239.62Zm21.69,0H282l.19,19.82H261.44Zm21.7,0h20.64l.31,19.82H283.26Zm0-1-.2-19.57h20.52l.31,19.57Zm-1.05,0H261.37l-.07-19.57h20.52Zm-21.69,0H239.68l.06-19.57h20.52Zm-21.69,0H218l.19-19.57H238.7Zm-21.69,0H196.31l.31-19.57h20.52Zm-21.68,0H174.62l.44-19.57h20.51Zm0,1-.32,19.82H174.16l.44-19.82Zm-.34,20.83-.32,20.06H173.69l.45-20.06Zm1.06,0h20.77l-.19,20.06h-20.9Zm21.83,0h20.77l-.07,20.06H217.6Zm21.83,0h20.76l.07,20.06h-20.9Zm21.82,0h20.77l.19,20.06H261.51Zm21.83,0H304l.32,20.06h-20.9Zm21.83,0h20.76l.45,20.06H305.42Zm0-1-.32-19.82H325.4l.44,19.82Zm-.34-20.82-.31-19.57h20.51l.44,19.57Zm-.33-20.56L304.1,193h20.39l.43,19.34Zm-1,0H282.86L282.67,193h20.39Zm-21.56,0H261.3L261.23,193h20.4Zm-21.55,0H239.74L239.8,193h20.4Zm-21.56,0H218.19l.18-19.34h20.4Zm-21.56,0H196.63l.31-19.34h20.39Zm-21.55,0H175.08l.43-19.34H195.9Zm-21.56,0H153.52l.56-19.34h20.39Zm0,1-.44,19.57H152.93l.56-19.57Zm-.46,20.57-.45,19.82H152.34l.56-19.82Zm-.47,20.83-.45,20.06h-20.9l.58-20.06Zm-.48,21.09-.45,20.31h-21l.58-20.31Zm1.07,0h20.89l-.32,20.31h-21Zm22,0h20.9l-.2,20.31h-21Zm22,0h20.9l-.07,20.31h-21Zm22,0h20.9l.06,20.31h-21Zm22,0h20.9l.19,20.31h-21Zm22,0h20.9l.32,20.31h-21Zm22,0h20.89l.45,20.31h-21Zm22,0h20.9l.58,20.31h-21Zm0-1-.45-20.06h20.77l.58,20.06Zm-.47-21.07-.45-19.82h20.64l.57,19.82Zm-.47-20.82L326,213.36h20.52l.56,19.57ZM326,212.37,325.53,193h20.39l.56,19.34Zm-.46-20.32-.43-19.11h20.27l.55,19.11Zm-1,0H304.08l-.31-19.11h20.28Zm-21.42,0H282.66l-.19-19.11h20.27Zm-21.43,0H261.23l-.06-19.11h20.27Zm-21.43,0H239.81l.05-19.11h20.28Zm-21.42,0H218.38l.18-19.11h20.27Zm-21.43,0H197l.31-19.11h20.27Zm-21.42,0H175.53l.42-19.11h20.28Zm-21.43,0H154.1l.55-19.11h20.27Zm-21.42,0H132.68l.67-19.11h20.27Zm0,1-.56,19.34H132l.67-19.34Zm-.59,20.33-.57,19.57H131.25l.68-19.57Zm-.6,20.57-.57,19.82H130.52l.69-19.82Zm-.6,20.83-.58,20.06H129.78l.7-20.06Zm-.61,21.09-.59,20.31H129l.71-20.31ZM150,297.2l-.59,20.56H128.27L129,297.2Zm1.07,0h21l-.46,20.56H150.5Zm22.1,0h21l-.33,20.56H172.73Zm22.1,0h21l-.2,20.56H195Zm22.1,0h21l-.07,20.56H217.19Zm22.1,0h21l.07,20.56H239.42Zm22.09,0h21l.2,20.56H261.65Zm22.1,0h21l.33,20.56H283.88Zm22.1,0h21l.46,20.56H306.11Zm22.1,0h21l.59,20.56H328.34Zm22.1,0h21l.72,20.56H350.57Zm0-1-.59-20.31h20.9l.71,20.31Zm-.62-21.34-.58-20.06h20.77l.7,20.06Zm-.61-21.07-.57-19.82h20.64l.69,19.82Zm-.6-20.82-.57-19.57h20.52l.68,19.57Zm-.6-20.56L347,193h20.4l.67,19.34Zm-.59-20.32-.55-19.11h20.27l.67,19.11ZM346.35,172l-.54-18.88H366l.66,18.88Zm-1,0H325.06l-.43-18.88h20.15ZM324,172H303.76l-.31-18.88H323.6Zm-21.29,0H282.46l-.18-18.88h20.15Zm-21.3,0H261.16l-.06-18.88h20.15Zm-21.3,0H239.87l.06-18.88h20.14Zm-21.29,0H218.57l.18-18.88H238.9Zm-21.3,0H197.27l.3-18.88h20.15Zm-21.3,0H176l.42-18.88h20.15Zm-21.3,0H154.68l.54-18.88h20.15Zm-21.29,0H133.38L134,153.1h20.15Zm-21.3,0H112.09l.78-18.88H133Zm0,1-.68,19.11H111.25l.8-19.11ZM131.61,193l-.69,19.34H110.41l.8-19.34Zm-.72,20.33-.69,19.57H109.56l.81-19.57Zm-.73,20.57-.7,19.82H108.7l.82-19.82Zm-.74,20.83-.7,20.06h-20.9l.84-20.06Zm-.74,21.09L128,296.16h-21l.84-20.31Zm-.76,21.35-.72,20.56H106.05l.85-20.56Zm-.76,21.61-.74,20.82H105.14l.86-20.82Zm1.08,0H149.4l-.61,20.82H127.51Zm22.23,0h21.16l-.47,20.82H149.88Zm22.24,0h21.16l-.34,20.82H172.25Zm22.24,0h21.16l-.21,20.82H194.62Zm22.23,0h21.16l-.07,20.82H217Zm22.24,0h21.16l.06,20.82H239.36Zm22.24,0h21.16l.19,20.82H261.73Zm22.23,0h21.16l.33,20.82H284.1Zm22.24,0h21.16l.46,20.82H306.47Zm22.24,0h21.16l.59,20.82H328.84Zm22.23,0h21.16l.73,20.82H351.21Zm22.24,0H394l.86,20.82H373.58Zm0-1.05-.72-20.56h21l.85,20.56Zm-.76-21.6-.72-20.31h20.9l.84,20.31Zm-.76-21.34-.7-20.06h20.76l.84,20.06Zm-.74-21.07-.7-19.82h20.64l.82,19.82Zm-.74-20.82-.69-19.57h20.52l.81,19.57Zm-.72-20.56L368.39,193h20.4l.8,19.34Zm-.72-20.32-.68-19.11H388l.8,19.11ZM367.65,172,367,153.1h20.15l.78,18.88Zm-.7-19.84-.66-18.65h20l.77,18.65Zm-1,0H345.78l-.54-18.65h20Zm-21.17,0H324.61l-.42-18.65h20Zm-21.17,0H303.44l-.3-18.65h20Zm-21.17,0H282.27l-.18-18.65h20Zm-21.17,0H261.1L261,133.49h20Zm-21.17,0H239.93l0-18.65h20Zm-21.17,0H218.76l.17-18.65h20Zm-21.17,0H197.59l.29-18.65h20Zm-21.17,0H176.42l.41-18.65h20Zm-21.17,0H155.25l.53-18.65h20Zm-21.17,0H134.08l.65-18.65h20Zm-21.17,0H112.91l.77-18.65h20Zm-21.17,0H91.74l.89-18.65h20Zm0,1L111.05,172H90.79l.9-18.88ZM111,172.94l-.79,19.11H89.83l.91-19.11ZM110.18,193l-.81,19.34H88.86L89.78,193Zm-.85,20.33-.82,19.57H87.87l.94-19.57Zm-.86,20.57-.83,19.82H86.88l.94-19.82Zm-.87,20.83-.84,20.06H85.87l1-20.06Zm-.88,21.09-.85,20.31h-21l1-20.31Zm-.89,21.35L105,317.76H83.82l1-20.56Zm-.91,21.61-.86,20.82H82.77l1-20.82ZM104,340.7l-.88,21.09H81.71l1-21.09Zm1.09,0h21.29l-.75,21.09H104.22Zm22.37,0h21.29l-.61,21.09H126.73Zm22.38,0h21.29l-.47,21.09H149.24Zm22.37,0h21.3l-.34,21.09H171.76Zm22.38,0h21.29l-.2,21.09H194.27Zm22.38,0h21.29l-.07,21.09H216.78Zm22.37,0h21.3l.06,21.09H239.29Zm22.38,0H283l.2,21.09H261.8Zm22.38,0H305.4l.33,21.09H284.31Zm22.37,0h21.3l.46,21.09H306.82Zm22.38,0h21.29l.61,21.09H329.33Zm22.38,0h21.29l.74,21.09H351.85Zm22.37,0H394.9l.88,21.09H374.36Zm22.38,0h21.29l1,21.09H396.87Zm-.05-1.07-.86-20.82h21.15l1,20.82ZM395,317.76l-.86-20.56h21l1,20.56Zm-.9-21.6-.85-20.31h20.9l1,20.31Zm-.89-21.34-.84-20.06h20.77l1,20.06Zm-.88-21.07-.83-19.82h20.65l.94,19.82Zm-.87-20.82-.82-19.57h20.52l.94,19.57Zm-.86-20.56L389.82,193h20.4l.92,19.34Zm-.85-20.32L389,172.94h20.27l.91,19.11ZM389,172l-.79-18.88h20.15l.9,18.88Zm-.83-19.84-.78-18.65h20l.89,18.65Zm-.82-19.59-.77-18.44h19.91l.89,18.44Zm-1,0h-20l-.66-18.44h19.92Zm-21,0h-20l-.53-18.44h19.91Zm-21.05,0h-20l-.42-18.44h19.91Zm-21,0h-20l-.3-18.44h19.92Zm-21,0h-20l-.18-18.44h19.91Zm-21,0H261L261,114.11h19.91Zm-21.05,0H240l0-18.44H260Zm-21,0h-20l.18-18.44H239Zm-21.05,0h-20l.29-18.44H218.1Zm-21,0h-20l.41-18.44h19.92Zm-21,0h-20l.53-18.44h19.91Zm-21,0h-20l.65-18.44h19.91Zm-21,0h-20l.76-18.44H134.4Zm-21,0h-20l.89-18.44h19.91Zm-21,0h-20l1-18.44H92.54Zm0,.94-.9,18.65H70.57l1-18.65Zm-.94,19.61L89.76,172H69.49l1-18.88Zm-1,19.84-.92,19.11H68.4l1-19.11Zm-1,20.09-.93,19.34H67.3l1-19.34Zm-1,20.33-.94,19.57H66.19l1.06-19.57Zm-1,20.57-1,19.82H65.06l1.07-19.82Zm-1,20.83-1,20.06H63.91L65,254.76Zm-1,21.09-1,20.31h-21l1.1-20.31Zm-1,21.35-1,20.56H61.59L62.7,297.2Zm-1,21.61-1,20.82H60.4l1.13-20.82ZM81.63,340.7l-1,21.09H59.2l1.14-21.09Zm-1.06,22.17-1,21.35H58l1.16-21.35Zm1.09,0h21.43l-.9,21.35H80.64Zm22.52,0H125.6l-.75,21.35H103.29Zm22.51,0h21.43l-.62,21.35H126Zm22.52,0h21.43l-.48,21.35H148.6Zm22.52,0h21.43l-.35,21.35H171.26Zm22.52,0h21.43l-.21,21.35H193.91Zm22.52,0H238.2l-.08,21.35H216.57Zm22.52,0h21.42l.07,21.35H239.22Zm22.51,0h21.43l.2,21.35H261.88Zm22.52,0h21.43l.34,21.35H284.53Zm22.52,0h21.43l.47,21.35H307.19Zm22.52,0h21.43l.61,21.35H329.84Zm22.52,0h21.43l.74,21.35H352.5Zm22.52,0h21.42l.89,21.35H375.15Zm22.51,0h21.43l1,21.35H397.81Zm22.52,0h21.43L442,384.22H420.46Zm-.05-1.08-1-21.09h21.29l1.14,21.09Zm-1.07-22.16-1-20.82h21.16l1.13,20.82Zm-1.05-21.87-1-20.56h21l1.11,20.56Zm-1-21.6-1-20.31h20.9l1.1,20.31Zm-1-21.34-1-20.06H435l1.09,20.06Zm-1-21.07-.95-19.82h20.64l1.07,19.82Zm-1-20.82-.94-19.57h20.51l1.06,19.57Zm-1-20.56L411.26,193h20.39l1.05,19.34Zm-1-20.32-.92-19.11h20.27l1,19.11Zm-1-20.07-.91-18.88h20.15l1,18.88Zm-.95-19.84-.9-18.65h20l1,18.65Zm-.94-19.59-.89-18.44h19.91l1,18.44ZM405.53,95l.87,18.22H386.49L385.73,95Zm-20.81,0,.76,18.22H365.57L364.93,95Zm-20.8,0,.64,18.22H344.65L344.12,95Zm-20.8,0,.52,18.22H323.73L323.32,95Zm-20.81,0,.41,18.22H302.81L302.51,95Zm-20.8,0,.29,18.22H281.89L281.71,95ZM280.7,95l.17,18.22H261L260.91,95Zm-20.8,0,.05,18.22h-19.9l0-18.22Zm-20.81,0L239,113.18h-19.9L219.3,95Zm-20.8,0-.18,18.22H198.2L198.49,95Zm-20.8,0-.3,18.22H177.28L177.69,95Zm-20.81,0-.41,18.22H156.36L156.88,95Zm-20.8,0-.53,18.22H135.44L136.08,95Zm-20.81,0-.64,18.22H114.52L115.28,95Zm-20.8,0-.76,18.22H93.6L94.47,95ZM93.46,95l-.87,18.22H72.68l1-18.22Zm-40.6,0h19.8l-1,18.22H51.76ZM51.7,114.11H71.62l-1,18.44h-20Zm-1.17,19.38h20l-1,18.65H49.4ZM49.34,153.1H69.49l-1,18.88H48.19Zm-1.2,19.84H68.41l-1,19.11H47ZM46.92,193H67.31l-1,19.34H45.75Zm-1.23,20.33H66.2l-1.06,19.57H44.5Zm-1.25,20.57H65.08L64,253.75H43.24Zm-1.26,20.83H64l-1.1,20.06H42ZM41.9,275.85H62.8l-1.11,20.31h-21ZM40.6,297.2h21l-1.12,20.56H39.36Zm-1.31,21.61H60.45l-1.13,20.82H38ZM38,340.7H59.26l-1.15,21.09H36.69Zm-1.35,22.17H58.05l-1.16,21.35H35.33Zm428.05,21.35H443.11L442,362.87h21.43Zm-1.36-22.43H441.89l-1.15-21.09H462ZM462,339.63H440.68l-1.13-20.82h21.16Zm-1.33-21.87H439.49l-1.12-20.56h21Zm-1.31-21.6h-21l-1.11-20.31h20.9ZM458,274.82H437.15l-1.1-20.06h20.77Zm-1.28-21.07H436l-1.08-19.82h20.64Zm-1.26-20.82H434.86l-1.06-19.57h20.51Zm-1.25-20.56H433.74L432.69,193h20.39ZM453,192.05H432.63l-1-19.11h20.27ZM451.81,172H431.54l-1-18.88h20.15Zm-1.21-19.84H430.46l-1-18.65h20Zm-1.18-19.59h-20l-1-18.44H448.3Zm-1.18-19.37H428.33l-1-18.22h19.8Z" style="fill:#2547B2"></path><path d="M449,95l-.06-.92h-.82L447,75.57h-1L447.08,94H427.29l-1-18.47h-1l1,18.47H406.49l-.89-18.47h-1L405.48,94H385.69l-.77-18.47h-1L384.69,94H364.9l-.66-18.47h-1L363.89,94H344.1l-.54-18.47h-1L343.09,94H323.3l-.42-18.47h-1L322.29,94H302.5l-.3-18.47h-1L301.49,94H281.7l-.18-18.47h-1L280.69,94H260.9l-.06-18.47h-1L259.9,94H240.1l.06-18.47h-1L239.1,94H219.31l.17-18.47h-1L218.3,94H198.51l.29-18.47h-1L197.5,94H177.71l.41-18.47h-1L176.7,94H156.91l.53-18.47h-1L155.9,94H136.11l.65-18.47h-1L135.1,94H115.31l.77-18.47h-1L114.31,94H94.52l.88-18.47h-1L93.51,94H73.72l1-18.47h-1L72.71,94H52.92L54,75.57H53L51.91,94H51l-.05.92h.92l-1.11,18.22h-.93l-.06.93h.93l-1.12,18.44h-.93l-.06.94h.93l-1.14,18.65h-.93l-.06,1h.93L47.16,172h-.94l-.06,1h.94l-1.16,19.11H45l-.06,1h1L44.7,212.37h-1l-.06,1h1l-1.19,19.57h-1l-.06,1h1l-1.21,19.82h-1l-.07,1h1L40.9,274.82h-1l-.07,1h1L39.6,296.16h-1l-.06,1h1l-1.25,20.56h-1l-.07,1.05h1L37,339.63H36l-.07,1.07h1L35.6,361.79h-1l-.06,1.08h1l-1.3,21.35h-1l-.07,1.09H466.73l-.07-1.09h-.89l-1.3-21.35h.89l-.07-1.08h-.89l-1.28-21.09H464l-.06-1.07h-.89l-1.27-20.82h.88l-.06-1.05h-.88l-1.25-20.56h.87l-.06-1h-.88l-1.23-20.31H460l-.06-1h-.87l-1.22-20.06h.86l-.06-1h-.86l-1.21-19.82h.86l-.06-1h-.86l-1.19-19.57h.85l-.06-1h-.85L454.12,193H455l-.06-1h-.85l-1.16-19.11h.84l-.06-1h-.84l-1.15-18.88h.83l0-1h-.84l-1.14-18.65h.83l-.05-.94h-.84l-1.12-18.44h.83l-.06-.93h-.83L448.14,95Zm-22.64,0,1,18.22H407.41L406.54,95ZM218,233.93h20.64l-.07,19.82H217.8Zm-1.25,19.82H196l.31-19.82h20.64Zm22.94-19.82h20.64l.06,19.82H239.62Zm21.69,0H282l.19,19.82H261.44Zm21.7,0h20.64l.31,19.82H283.26Zm0-1-.2-19.57h20.52l.31,19.57Zm-1.05,0H261.37l-.07-19.57h20.52Zm-21.69,0H239.68l.06-19.57h20.52Zm-21.69,0H218l.19-19.57H238.7Zm-21.69,0H196.31l.31-19.57h20.52Zm-21.68,0H174.62l.44-19.57h20.51Zm0,1-.32,19.82H174.16l.44-19.82Zm-.34,20.83-.32,20.06H173.69l.45-20.06Zm1.06,0h20.77l-.19,20.06h-20.9Zm21.83,0h20.77l-.07,20.06H217.6Zm21.83,0h20.76l.07,20.06h-20.9Zm21.82,0h20.77l.19,20.06H261.51Zm21.83,0H304l.32,20.06h-20.9Zm21.83,0h20.76l.45,20.06H305.42Zm0-1-.32-19.82H325.4l.44,19.82Zm-.34-20.82-.31-19.57h20.51l.44,19.57Zm-.33-20.56L304.1,193h20.39l.43,19.34Zm-1,0H282.86L282.67,193h20.39Zm-21.56,0H261.3L261.23,193h20.4Zm-21.55,0H239.74L239.8,193h20.4Zm-21.56,0H218.19l.18-19.34h20.4Zm-21.56,0H196.63l.31-19.34h20.39Zm-21.55,0H175.08l.43-19.34H195.9Zm-21.56,0H153.52l.56-19.34h20.39Zm0,1-.44,19.57H152.93l.56-19.57Zm-.46,20.57-.45,19.82H152.34l.56-19.82Zm-.47,20.83-.45,20.06h-20.9l.58-20.06Zm-.48,21.09-.45,20.31h-21l.58-20.31Zm1.07,0h20.89l-.32,20.31h-21Zm22,0h20.9l-.2,20.31h-21Zm22,0h20.9l-.07,20.31h-21Zm22,0h20.9l.06,20.31h-21Zm22,0h20.9l.19,20.31h-21Zm22,0h20.9l.32,20.31h-21Zm22,0h20.89l.45,20.31h-21Zm22,0h20.9l.58,20.31h-21Zm0-1-.45-20.06h20.77l.58,20.06Zm-.47-21.07-.45-19.82h20.64l.57,19.82Zm-.47-20.82L326,213.36h20.52l.56,19.57ZM326,212.37,325.53,193h20.39l.56,19.34Zm-.46-20.32-.43-19.11h20.27l.55,19.11Zm-1,0H304.08l-.31-19.11h20.28Zm-21.42,0H282.66l-.19-19.11h20.27Zm-21.43,0H261.23l-.06-19.11h20.27Zm-21.43,0H239.81l.05-19.11h20.28Zm-21.42,0H218.38l.18-19.11h20.27Zm-21.43,0H197l.31-19.11h20.27Zm-21.42,0H175.53l.42-19.11h20.28Zm-21.43,0H154.1l.55-19.11h20.27Zm-21.42,0H132.68l.67-19.11h20.27Zm0,1-.56,19.34H132l.67-19.34Zm-.59,20.33-.57,19.57H131.25l.68-19.57Zm-.6,20.57-.57,19.82H130.52l.69-19.82Zm-.6,20.83-.58,20.06H129.78l.7-20.06Zm-.61,21.09-.59,20.31H129l.71-20.31ZM150,297.2l-.59,20.56H128.27L129,297.2Zm1.07,0h21l-.46,20.56H150.5Zm22.1,0h21l-.33,20.56H172.73Zm22.1,0h21l-.2,20.56H195Zm22.1,0h21l-.07,20.56H217.19Zm22.1,0h21l.07,20.56H239.42Zm22.09,0h21l.2,20.56H261.65Zm22.1,0h21l.33,20.56H283.88Zm22.1,0h21l.46,20.56H306.11Zm22.1,0h21l.59,20.56H328.34Zm22.1,0h21l.72,20.56H350.57Zm0-1-.59-20.31h20.9l.71,20.31Zm-.62-21.34-.58-20.06h20.77l.7,20.06Zm-.61-21.07-.57-19.82h20.64l.69,19.82Zm-.6-20.82-.57-19.57h20.52l.68,19.57Zm-.6-20.56L347,193h20.4l.67,19.34Zm-.59-20.32-.55-19.11h20.27l.67,19.11ZM346.35,172l-.54-18.88H366l.66,18.88Zm-1,0H325.06l-.43-18.88h20.15ZM324,172H303.76l-.31-18.88H323.6Zm-21.29,0H282.46l-.18-18.88h20.15Zm-21.3,0H261.16l-.06-18.88h20.15Zm-21.3,0H239.87l.06-18.88h20.14Zm-21.29,0H218.57l.18-18.88H238.9Zm-21.3,0H197.27l.3-18.88h20.15Zm-21.3,0H176l.42-18.88h20.15Zm-21.3,0H154.68l.54-18.88h20.15Zm-21.29,0H133.38L134,153.1h20.15Zm-21.3,0H112.09l.78-18.88H133Zm0,1-.68,19.11H111.25l.8-19.11ZM131.61,193l-.69,19.34H110.41l.8-19.34Zm-.72,20.33-.69,19.57H109.56l.81-19.57Zm-.73,20.57-.7,19.82H108.7l.82-19.82Zm-.74,20.83-.7,20.06h-20.9l.84-20.06Zm-.74,21.09L128,296.16h-21l.84-20.31Zm-.76,21.35-.72,20.56H106.05l.85-20.56Zm-.76,21.61-.74,20.82H105.14l.86-20.82Zm1.08,0H149.4l-.61,20.82H127.51Zm22.23,0h21.16l-.47,20.82H149.88Zm22.24,0h21.16l-.34,20.82H172.25Zm22.24,0h21.16l-.21,20.82H194.62Zm22.23,0h21.16l-.07,20.82H217Zm22.24,0h21.16l.06,20.82H239.36Zm22.24,0h21.16l.19,20.82H261.73Zm22.23,0h21.16l.33,20.82H284.1Zm22.24,0h21.16l.46,20.82H306.47Zm22.24,0h21.16l.59,20.82H328.84Zm22.23,0h21.16l.73,20.82H351.21Zm22.24,0H394l.86,20.82H373.58Zm0-1.05-.72-20.56h21l.85,20.56Zm-.76-21.6-.72-20.31h20.9l.84,20.31Zm-.76-21.34-.7-20.06h20.76l.84,20.06Zm-.74-21.07-.7-19.82h20.64l.82,19.82Zm-.74-20.82-.69-19.57h20.52l.81,19.57Zm-.72-20.56L368.39,193h20.4l.8,19.34Zm-.72-20.32-.68-19.11H388l.8,19.11ZM367.65,172,367,153.1h20.15l.78,18.88Zm-.7-19.84-.66-18.65h20l.77,18.65Zm-1,0H345.78l-.54-18.65h20Zm-21.17,0H324.61l-.42-18.65h20Zm-21.17,0H303.44l-.3-18.65h20Zm-21.17,0H282.27l-.18-18.65h20Zm-21.17,0H261.1L261,133.49h20Zm-21.17,0H239.93l0-18.65h20Zm-21.17,0H218.76l.17-18.65h20Zm-21.17,0H197.59l.29-18.65h20Zm-21.17,0H176.42l.41-18.65h20Zm-21.17,0H155.25l.53-18.65h20Zm-21.17,0H134.08l.65-18.65h20Zm-21.17,0H112.91l.77-18.65h20Zm-21.17,0H91.74l.89-18.65h20Zm0,1L111.05,172H90.79l.9-18.88ZM111,172.94l-.79,19.11H89.83l.91-19.11ZM110.18,193l-.81,19.34H88.86L89.78,193Zm-.85,20.33-.82,19.57H87.87l.94-19.57Zm-.86,20.57-.83,19.82H86.88l.94-19.82Zm-.87,20.83-.84,20.06H85.87l1-20.06Zm-.88,21.09-.85,20.31h-21l1-20.31Zm-.89,21.35L105,317.76H83.82l1-20.56Zm-.91,21.61-.86,20.82H82.77l1-20.82ZM104,340.7l-.88,21.09H81.71l1-21.09Zm1.09,0h21.29l-.75,21.09H104.22Zm22.37,0h21.29l-.61,21.09H126.73Zm22.38,0h21.29l-.47,21.09H149.24Zm22.37,0h21.3l-.34,21.09H171.76Zm22.38,0h21.29l-.2,21.09H194.27Zm22.38,0h21.29l-.07,21.09H216.78Zm22.37,0h21.3l.06,21.09H239.29Zm22.38,0H283l.2,21.09H261.8Zm22.38,0H305.4l.33,21.09H284.31Zm22.37,0h21.3l.46,21.09H306.82Zm22.38,0h21.29l.61,21.09H329.33Zm22.38,0h21.29l.74,21.09H351.85Zm22.37,0H394.9l.88,21.09H374.36Zm22.38,0h21.29l1,21.09H396.87Zm-.05-1.07-.86-20.82h21.15l1,20.82ZM395,317.76l-.86-20.56h21l1,20.56Zm-.9-21.6-.85-20.31h20.9l1,20.31Zm-.89-21.34-.84-20.06h20.77l1,20.06Zm-.88-21.07-.83-19.82h20.65l.94,19.82Zm-.87-20.82-.82-19.57h20.52l.94,19.57Zm-.86-20.56L389.82,193h20.4l.92,19.34Zm-.85-20.32L389,172.94h20.27l.91,19.11ZM389,172l-.79-18.88h20.15l.9,18.88Zm-.83-19.84-.78-18.65h20l.89,18.65Zm-.82-19.59-.77-18.44h19.91l.89,18.44Zm-1,0h-20l-.66-18.44h19.92Zm-21,0h-20l-.53-18.44h19.91Zm-21.05,0h-20l-.42-18.44h19.91Zm-21,0h-20l-.3-18.44h19.92Zm-21,0h-20l-.18-18.44h19.91Zm-21,0H261L261,114.11h19.91Zm-21.05,0H240l0-18.44H260Zm-21,0h-20l.18-18.44H239Zm-21.05,0h-20l.29-18.44H218.1Zm-21,0h-20l.41-18.44h19.92Zm-21,0h-20l.53-18.44h19.91Zm-21,0h-20l.65-18.44h19.91Zm-21,0h-20l.76-18.44H134.4Zm-21,0h-20l.89-18.44h19.91Zm-21,0h-20l1-18.44H92.54Zm0,.94-.9,18.65H70.57l1-18.65Zm-.94,19.61L89.76,172H69.49l1-18.88Zm-1,19.84-.92,19.11H68.4l1-19.11Zm-1,20.09-.93,19.34H67.3l1-19.34Zm-1,20.33-.94,19.57H66.19l1.06-19.57Zm-1,20.57-1,19.82H65.06l1.07-19.82Zm-1,20.83-1,20.06H63.91L65,254.76Zm-1,21.09-1,20.31h-21l1.1-20.31Zm-1,21.35-1,20.56H61.59L62.7,297.2Zm-1,21.61-1,20.82H60.4l1.13-20.82ZM81.63,340.7l-1,21.09H59.2l1.14-21.09Zm-1.06,22.17-1,21.35H58l1.16-21.35Zm1.09,0h21.43l-.9,21.35H80.64Zm22.52,0H125.6l-.75,21.35H103.29Zm22.51,0h21.43l-.62,21.35H126Zm22.52,0h21.43l-.48,21.35H148.6Zm22.52,0h21.43l-.35,21.35H171.26Zm22.52,0h21.43l-.21,21.35H193.91Zm22.52,0H238.2l-.08,21.35H216.57Zm22.52,0h21.42l.07,21.35H239.22Zm22.51,0h21.43l.2,21.35H261.88Zm22.52,0h21.43l.34,21.35H284.53Zm22.52,0h21.43l.47,21.35H307.19Zm22.52,0h21.43l.61,21.35H329.84Zm22.52,0h21.43l.74,21.35H352.5Zm22.52,0h21.42l.89,21.35H375.15Zm22.51,0h21.43l1,21.35H397.81Zm22.52,0h21.43L442,384.22H420.46Zm-.05-1.08-1-21.09h21.29l1.14,21.09Zm-1.07-22.16-1-20.82h21.16l1.13,20.82Zm-1.05-21.87-1-20.56h21l1.11,20.56Zm-1-21.6-1-20.31h20.9l1.1,20.31Zm-1-21.34-1-20.06H435l1.09,20.06Zm-1-21.07-.95-19.82h20.64l1.07,19.82Zm-1-20.82-.94-19.57h20.51l1.06,19.57Zm-1-20.56L411.26,193h20.39l1.05,19.34Zm-1-20.32-.92-19.11h20.27l1,19.11Zm-1-20.07-.91-18.88h20.15l1,18.88Zm-.95-19.84-.9-18.65h20l1,18.65Zm-.94-19.59-.89-18.44h19.91l1,18.44ZM405.53,95l.87,18.22H386.49L385.73,95Zm-20.81,0,.76,18.22H365.57L364.93,95Zm-20.8,0,.64,18.22H344.65L344.12,95Zm-20.8,0,.52,18.22H323.73L323.32,95Zm-20.81,0,.41,18.22H302.81L302.51,95Zm-20.8,0,.29,18.22H281.89L281.71,95ZM280.7,95l.17,18.22H261L260.91,95Zm-20.8,0,.05,18.22h-19.9l0-18.22Zm-20.81,0L239,113.18h-19.9L219.3,95Zm-20.8,0-.18,18.22H198.2L198.49,95Zm-20.8,0-.3,18.22H177.28L177.69,95Zm-20.81,0-.41,18.22H156.36L156.88,95Zm-20.8,0-.53,18.22H135.44L136.08,95Zm-20.81,0-.64,18.22H114.52L115.28,95Zm-20.8,0-.76,18.22H93.6L94.47,95ZM93.46,95l-.87,18.22H72.68l1-18.22Zm-40.6,0h19.8l-1,18.22H51.76ZM51.7,114.11H71.62l-1,18.44h-20Zm-1.17,19.38h20l-1,18.65H49.4ZM49.34,153.1H69.49l-1,18.88H48.19Zm-1.2,19.84H68.41l-1,19.11H47ZM46.92,193H67.31l-1,19.34H45.75Zm-1.23,20.33H66.2l-1.06,19.57H44.5Zm-1.25,20.57H65.08L64,253.75H43.24Zm-1.26,20.83H64l-1.1,20.06H42ZM41.9,275.85H62.8l-1.11,20.31h-21ZM40.6,297.2h21l-1.12,20.56H39.36Zm-1.31,21.61H60.45l-1.13,20.82H38ZM38,340.7H59.26l-1.15,21.09H36.69Zm-1.35,22.17H58.05l-1.16,21.35H35.33Zm428.05,21.35H443.11L442,362.87h21.43Zm-1.36-22.43H441.89l-1.15-21.09H462ZM462,339.63H440.68l-1.13-20.82h21.16Zm-1.33-21.87H439.49l-1.12-20.56h21Zm-1.31-21.6h-21l-1.11-20.31h20.9ZM458,274.82H437.15l-1.1-20.06h20.77Zm-1.28-21.07H436l-1.08-19.82h20.64Zm-1.26-20.82H434.86l-1.06-19.57h20.51Zm-1.25-20.56H433.74L432.69,193h20.39ZM453,192.05H432.63l-1-19.11h20.27ZM451.81,172H431.54l-1-18.88h20.15Zm-1.21-19.84H430.46l-1-18.65h20Zm-1.18-19.59h-20l-1-18.44H448.3Zm-1.18-19.37H428.33l-1-18.22h19.8Z" style="fill:#fff;opacity:0.7000000000000001"></path></g><path d="M473.67,396.36H461.15L442.51,82.64A2.49,2.49,0,0,0,440,80.45H60a2.49,2.49,0,0,0-2.54,2.19L38.85,396.36H26.33L46.08,82.64c.44-6.93,7-12.55,14.56-12.55H439.36c7.59,0,14.12,5.62,14.56,12.55Z" style="fill:#2547B2"></path><path d="M473.67,396.36H461.15L442.51,82.64A2.49,2.49,0,0,0,440,80.45H60a2.49,2.49,0,0,0-2.54,2.19L38.85,396.36H26.33L46.08,82.64c.44-6.93,7-12.55,14.56-12.55H439.36c7.59,0,14.12,5.62,14.56,12.55Z" style="fill:#fff;opacity:0.6000000000000001"></path></g><g id="freepik--Character--inject-3"><path d="M229,212.26c-1.58.48-2.94.83-4.4,1.21s-2.87.71-4.32,1c-2.89.64-5.8,1.21-8.79,1.67a81.84,81.84,0,0,1-9.21.91,37.6,37.6,0,0,1-10.4-.87,27.54,27.54,0,0,1-4.67-1.69c-1.4-.63-2.73-1.28-4.05-1.95-2.63-1.33-5.15-2.71-7.64-4.12-5-2.82-9.83-5.74-14.65-8.81a3.73,3.73,0,0,1,3.35-6.62h0c5.16,2,10.41,4,15.62,5.78,2.61.9,5.22,1.76,7.79,2.52,1.29.37,2.57.73,3.8,1s2.45.53,3.38.71a15.76,15.76,0,0,0,2.87.12,33,33,0,0,0,3.46-.3,67.25,67.25,0,0,0,7.41-1.46c2.51-.62,5.05-1.37,7.56-2.18,1.26-.41,2.51-.84,3.76-1.28s2.54-.93,3.6-1.36A8.3,8.3,0,1,1,229.81,212a6.49,6.49,0,0,1-.74.26Z" style="fill:#263238"></path><path d="M160.74,198.14a2.32,2.32,0,0,1-1.2,1.5,5.09,5.09,0,0,1-2.77.49c-1.79-.29-5.16-2.41-6.78-3.41l-2.91-1.79a6.34,6.34,0,0,1-2.59-3.7h0a5.05,5.05,0,0,1,.12-3.31l1.18-2.62a2.38,2.38,0,0,1,3.44-1.13l4.32,2.11s4.38,1.22,6.9,4.09a5.45,5.45,0,0,1,1.17,4.95Z" style="fill:#2547B2"></path><path d="M157.79,192.81c-2-1.29.8-1.89-4.18-7-1.76-1.81-1.49-4,.3-2.79,3.93,2.73,12.27,5.71,8.36,12.33C159.9,199.34,157.79,192.81,157.79,192.81Z" style="fill:#2547B2"></path><path d="M162,191.65s4.63,1,6,2.43c-.44,3.49-3.51,7.41-4.76,8.13a22.3,22.3,0,0,1-5.25-3.5S160,191.54,162,191.65Z" style="fill:#2547B2"></path><path d="M244.3,182.89a6.14,6.14,0,0,1,8.34,2.82,182.81,182.81,0,0,0,9.41,17.19c3.13,5.1,6.33,9.8,9.32,14,7,9.82,12.95,16.84,14.62,19.5l-33.78,23.28c-20.05-19.47-29.66-36.35-34-46.06a13.48,13.48,0,0,1,3.24-15.46l.42-.39c.52-.47,1-.92,1.6-1.38a152.71,152.71,0,0,1,14.36-9.9c.94-.58,1.91-1.14,2.86-1.68C241.93,184.11,243.16,183.46,244.3,182.89Z" style="fill:#263238"></path><path d="M203.47,170c-1.74-.66-2.4-2.42-2.55-5.73C200.21,156.72,215,155,217.8,157c3.95-2.43,9.35.79,10.81,4.57,2.06,5.35,1.91,14.81-1.78,16C223.91,178.6,203.47,170,203.47,170Z" style="fill:#263238"></path><path d="M217.26,157.86a4.63,4.63,0,0,1,5.33-3.46A11.2,11.2,0,0,0,217.26,157.86Z" style="fill:#263238"></path><path d="M225.68,172.51c2.12,4.87,6.6,12.67,11.23,15.08a1.51,1.51,0,0,1,.78,1.72c-.92,3.53-3.1,6.5-5.62,7.8-3.43,1.77-5.13-.14-5.3-2.29.09-1.11-.33-1.85-1-3.79a12.27,12.27,0,0,0-3.75-4.92Z" style="fill:#ffc3bd"></path><path d="M224.2,178.06l-2.15,8a17.94,17.94,0,0,1,2.2,2.25c1.77-1.64,3-5.67,1.78-7.87A8.4,8.4,0,0,0,224.2,178.06Z" style="opacity:0.2"></path><path d="M222.42,164.82c3.69,6.65,6.2,10.36,5.06,15.71-1.71,8.05-11.49,10.16-17.1,4.75-5-4.88-10.24-14.95-5.6-21.5A10.38,10.38,0,0,1,222.42,164.82Z" style="fill:#ffc3bd"></path><path d="M216.73,162.44c-2.3,2.27-13.3,8.73-14.38,5.5s1-7.57,6.06-8.68,13.5-2.76,15.57,1.07,2.09,10.28,2.09,10.28S217.57,169.76,216.73,162.44Z" style="fill:#263238"></path><path d="M228.78,168.77a6.87,6.87,0,0,1-1.25,5.09c-1.44,1.92-3.63,1-4.45-1.14-.74-1.91-.89-5.22,1.15-6.39A3.08,3.08,0,0,1,228.78,168.77Z" style="fill:#ffc3bd"></path><path d="M342,391.68l6.59-5.48S326.33,345,311.91,325.93c-4.38-5.8-7.28-14.47-12.12-24.41-6.1-12.52-12.28-26.39-17-37.34-5-11.53-8.37-19.8-8.37-19.8l-22.21,15.3s28.91,58.55,42.16,77.85C308.13,357.6,342,391.68,342,391.68Z" style="fill:#263238"></path><path d="M355,383.58l-8.79-3.65a1.63,1.63,0,0,0-2.09.78l-4,8.08a2,2,0,0,0-.16,1.35c.85,3.55,2.06,11.84.61,18.37-.35,1.55,3.18,3,4.72-.29s4.78-10.89,5.93-13.33c1.85-4,3.11-6.17,4.64-9.29A1.5,1.5,0,0,0,355,383.58Z" style="fill:#2547B2"></path><path d="M264.19,251.43s36.3,44.73,55.63,56.2c21.17,12.56,78.3,40.58,78.3,40.58l-.58-9.46s-33.71-33.91-60.44-45.21C314.86,277.65,286,236.41,286,236.41Z" style="fill:#263238"></path><path d="M406.9,347.15c-.21-4.38-.11-6.91-.21-10.38a1.5,1.5,0,0,0-1.7-1.39l-9.38-.1a1.64,1.64,0,0,0-1.66,1.63v8.4a2,2,0,0,0,.54,1.36c3.45,3.53,7.54,10.92,9.32,17.49.42,1.54,4.23,1.19,4.06-2.45S407,349.85,406.9,347.15Z" style="fill:#2547B2"></path><path d="M285.05,233.15s-17.79,11.23-35.43,25.11a13.63,13.63,0,0,0,2.47,3.2s4.18,11.54,15.31,29.67c12.27-3.84,29.79-15.57,29.79-15.57Z" style="fill:#2547B2"></path><path d="M299.79,301.52c-6.1-12.52-12.28-26.39-17-37.34l-5.93-3C276.57,271.58,290.47,291.9,299.79,301.52Z" style="opacity:0.2"></path><path d="M285.05,233.15l1.75,3.2s17.57,18.24,24,28.88c-3.5,5-15.24,15.32-21.38,16.59,0,0-19.21-15.93-26.74-31.4C264.6,248.23,285.05,233.15,285.05,233.15Z" style="fill:#2547B2"></path><path d="M291,244.93c-1.42-1.77-2.87-3.58-4-5-.95-1.2-1.63-2.09-1.79-2.36a11.86,11.86,0,0,0-2.39-2.81l-.14-.13h0c-.93.62-2.12,1.39-3.51,2.32l.35.27a9.31,9.31,0,0,1,2.23,2.36c.45.76,2.3,3.07,6.1,7.81l2,2.5h0c5.67,7.09,13.31,16.75,15.77,21,1.07-1,2.05-2,2.89-2.94C305.13,262.59,297.06,252.54,291,244.93Z" style="fill:#fff;opacity:0.2"></path><path d="M212.59,171.46c.34.52.33,1.12,0,1.33s-.89,0-1.22-.55-.33-1.12,0-1.33S212.26,170.93,212.59,171.46Z" style="fill:#263238"></path><path d="M215.53,181c.33.52.32,1.12,0,1.33s-.89,0-1.22-.55-.33-1.12,0-1.33S215.19,180.44,215.53,181Z" style="fill:#263238"></path><path d="M206.51,176.39c.33.52.32,1.12,0,1.34s-.89,0-1.22-.55-.33-1.12,0-1.34S206.17,175.87,206.51,176.39Z" style="fill:#263238"></path><path d="M208.44,174.29a21.89,21.89,0,0,1,.89,6,3.57,3.57,0,0,0,2.68-1.36Z" style="fill:#ed847e"></path><path d="M214.33,169.18a.38.38,0,0,1-.36.12,2.9,2.9,0,0,0-2.57.55.36.36,0,1,1-.5-.52,3.58,3.58,0,0,1,3.23-.74.35.35,0,0,1,.27.43A.46.46,0,0,1,214.33,169.18Z" style="fill:#263238"></path><path d="M204,176.75a.35.35,0,0,1-.2.1.36.36,0,0,1-.4-.32,3.55,3.55,0,0,1,1.1-3.13.36.36,0,0,1,.51,0,.36.36,0,0,1-.05.51h0a2.87,2.87,0,0,0-.84,2.48A.35.35,0,0,1,204,176.75Z" style="fill:#263238"></path><path d="M238.88,192.91c0-.19.09-.59.13-.91l.13-1,.22-2.11c.14-1.41.23-2.84.3-4.27.12-2.85.13-5.7,0-8.5a46.75,46.75,0,0,0-3.18-15.61l-.38-.83a3.21,3.21,0,0,0-.17-.36l-.1-.2c-.19-.34-.5-.78-.84-1.29-.68-1-1.53-2.13-2.44-3.23-1.84-2.21-3.88-4.42-6-6.59-4.21-4.34-8.68-8.63-13.15-12.77l0,0a3.73,3.73,0,0,1,4.51-5.9c5.37,3.34,10.58,6.79,15.75,10.53,2.58,1.87,5.14,3.8,7.7,6a48.19,48.19,0,0,1,3.86,3.58,19.73,19.73,0,0,1,1.94,2.41l.51.8c.19.29.26.43.39.65l.69,1.23a60.29,60.29,0,0,1,6,20.18,100.44,100.44,0,0,1,.83,10c.06,1.67.07,3.34.05,5l-.06,2.52-.06,1.29c0,.46-.05.82-.1,1.41l0,.39a8.31,8.31,0,1,1-16.56-1.48A8.67,8.67,0,0,1,238.88,192.91Z" style="fill:#263238"></path><path d="M244.45,203c1.66,2.68,2.2,6.73.46,7.82s-5.1-1.18-6.76-3.86-1-4.76.75-5.85S242.79,200.26,244.45,203Z" style="fill:#2547B2;opacity:0.30000000000000004"></path><path d="M251.77,196a16.16,16.16,0,0,0,8.86,4.55c-1.51-2.53-3-5.14-4.43-7.84a2.81,2.81,0,0,0-3.15-1.41h0A2.8,2.8,0,0,0,251.77,196Z" style="opacity:0.2"></path><path d="M218.1,131.17a2.24,2.24,0,0,0,.63-1.78,6.19,6.19,0,0,0-.92-2.81c-1.09-1.58-4.4-3.88-6-5l-2.82-2a5.73,5.73,0,0,0-4.21-.9h0a4,4,0,0,0-2.6,1.51l-1.54,2.22a2.72,2.72,0,0,0,.72,3.73l3.76,3.2s3.06,3.63,6.57,4.81a4.38,4.38,0,0,0,4.53-1Z" style="fill:#2547B2"></path><path d="M211.41,130.6c-2.14-1.14-1.25,1.63-8.17-.14-2.44-.63-4.25.7-2.27,1.64,4.33,2.06,11.05,7.81,14.85,1.13C218.12,129.19,211.41,130.6,211.41,130.6Z" style="fill:#2547B2"></path><path d="M212.56,134.72s3.14,4.69,5,5.39c3-1.85,5-7.17,5.12-8.61a22.2,22.2,0,0,0-5.36-3.32S211.65,133,212.56,134.72Z" style="fill:#2547B2"></path></g></svg>
